{"title":"Birdy 1984 HDRip XviD titler","uid":9416367,"size":1473899132,"categoryP":"video","categoryS":"movies","magnet":"?xt=urn:btih:635af18f0dadd81eae14ba254938f8e8337bc709&amp;dn=Birdy+1984+HDRip+XviD+titler&amp;tr=udp%3A%2F%2Ftracker.openbittorrent.com%3A80&amp;tr=udp%3A%2F%2Fopen.demonii.com%3A1337&amp;tr=udp%3A%2F%2Ftracker.coppersurfer.tk%3A6969&amp;tr=udp%3A%2F%2Fexodus.desync.com%3A6969","seeders":1,"leechers":0,"uploader":"movieZ.freak","files":20,"time":1388453867,"description":"SOURCE: Birdy 1984 720p WEB-DL H264 - HDB\n\n\n &lt;a href=&quot;\nhttp://www.imdb.com/title/tt0086969/&quot; rel=&quot;nofollow&quot; target=&quot;_NEW&quot;&gt;\nhttp://www.imdb.com/title/tt0086969/&lt;/a&gt;\n\n\n &lt;a href=&quot;\nhttp://www.rottentomatoes.com/m/birdy/&quot; rel=&quot;nofollow&quot; target=&quot;_NEW&quot;&gt;\nhttp://www.rottentomatoes.com/m/birdy/&lt;/a&gt;\n\n\n &lt;a href=&quot;\nhttp://en.wikipedia.org/wiki/Birdy_%28film%29&quot; rel=&quot;nofollow&quot; target=&quot;_NEW&quot;&gt;\nhttp://en.wikipedia.org/wiki/Birdy_%28film%29&lt;/a&gt;\n\n\n\n\nSoundtrack\n--------------- &lt;a href=&quot;\nhttp://en.wikipedia.org/wiki/Birdy_%28Peter_Gabriel_album%29&quot; rel=&quot;nofollow&quot; target=&quot;_NEW&quot;&gt;\nhttp://en.wikipedia.org/wiki/Birdy_%28Peter_Gabriel_album%29&lt;/a&gt;\n\n\n\n- SAMPLE: Yes\n\n\n- SUBTITLE: English\n\n\n- LANGUAGE / AUDIO: English\n\n\n\nSCREENSHOTS:\n------------------- &lt;a href=&quot;\nhttp://someimage.com/SczF&quot; rel=&quot;nofollow&quot; target=&quot;_NEW&quot;&gt;\nhttp://someimage.com/SczF&lt;/a&gt;\n\n\n\nDIRECTOR: Alan Parker\n &lt;a href=&quot;\nhttp://www.imdb.com/name/nm0000570/&quot; rel=&quot;nofollow&quot; target=&quot;_NEW&quot;&gt;\nhttp://www.imdb.com/name/nm0000570/&lt;/a&gt;\n\n\n\nCAST: Matthew Modine, Nicolas Cage, Karen Young, Bruno Kirby, Marshall Bell, Nancy Fish,...\n\n\nPLOT:\n-----------\nDirector Alan Parker tackles this adapation of William Wharton's novel, which retains much of the source material's texture and complexity. Matthew Modine is Birdy, who comes back from Vietnam mentally shattered and deludes himself into thinking that he is a bird, an animal that has obsessed him since childhood. Birdy is confined to a military hospital, where he spends his time sitting naked in his room, not acknowleding anyone, moving and acting like a parakeet. His best friend Al (Nicolas Cage), also a wounded Vietnam vet, visits Birdy every day, determined to bring him back to reality. Birdy is occasionally disjointed but enriched by strong performances from Modine and Cage and a number of hard-to-forget moments.\n\n\nNOTE:\n----------\nIncluding soundtrack: MP3 320 Kbps\n\n\nPeter Gabriel - &quot;Birdy&quot; (1985)\n\n***************************************************************************\n\n01 - At Night - 2:38\n02 - Floating Dogs - 2:55\n03 - Quiet and Alone - 2:30\n04 - Close Up (from &quot;Family Snapshot&quot;) - 0:55\n05 - Slow Water - 2:51\n06 - Dressing the Wound - 4:06\n07 - Birdy's Flight (from &quot;Not One of Us&quot;) - 2:58\n08 - Slow Marimbas - 3:21\n09 - The Heat (from &quot;The Rhythm of the Heat&quot;) - 4:41\n10 - Sketch Pad With Trumpet and Voice - 3:05\n11 - Under Lock and Key (from &quot;Wallflower&quot;) - 2:28\n12 - Powerhouse at the Foot of the Mountain (from &quot;San Jacinto&quot;) - 2:19\n\n***************************************************************************\n\nAvi info:\n\n************************************\n\n- Duration: 2h 0mn\n\n- Bit rate: 1379 Kbps\n\n- Res: 640 x 358\n\n- AR: 16:9\n\n- FPS: 23.976 fps\n\n- Audio: AC3, 128Kbps, 2 channels\n\n************************************\n\n\nGeneral\n------------\nFormat : AVI\nFormat/Info : Audio Video Interleave\nFile size : 1.27 GiB\nDuration : 2h 0mn\nOverall bit rate : 1517 Kbps\nWriting library : VirtualDub build 35491\n\n\nVideo\n------------\nFormat : MPEG-4 Visual\nFormat profile : Advanced Simple@L5\nFormat settings, BVOP : 2\nFormat settings, QPel : No\nFormat settings, GMC : No warppoints\nFormat settings, Matrix : Default (H.263)\nCodec ID : XVID\nCodec ID/Hint : XviD\nDuration : 2h 0mn\nBit rate : 1379 Kbps\nWidth : 640 pixels\nHeight : 358 pixels\nDisplay aspect ratio : 16:9\nFrame rate : 23.976 fps\nColor space : YUV\nChroma subsampling : 4:2:0\nBit depth : 8 bits\nScan type : Progressive\nCompression mode : Lossy\nBits/(Pixel*Frame) : 0.251\nStream size : 1.16 GiB (91%)\nWriting library : XviD 65\n\n\nAudio\n------------\nFormat : AC-3\nFormat/Info : Audio Coding 3\nMode extension : CM (complete main)\nFormat settings, Endianness : Big\nCodec ID : 2000\nDuration : 2h 0mn\nBit rate mode : Constant\nBit rate : 128 Kbps\nChannel(s) : 2 channels\nChannel positions : Front: L R\nSampling rate : 48.0 KHz\nBit depth : 16 bits\nCompression mode : Lossy\nStream size : 110 MiB (8%)\nAlignment : Aligned on interleaves\nInterleave, duration : 42 ms (1.00 video frame)\nInterleave, preload duration : 512 ms\n","torrent":{"xt":"urn:btih:635af18f0dadd81eae14ba254938f8e8337bc709","amp;dn":"Birdy+1984+HDRip+XviD+titler","amp;tr":["udp%3A%2F%2Ftracker.openbittorrent.com%3A80","udp%3A%2F%2Fopen.demonii.com%3A1337","udp%3A%2F%2Ftracker.coppersurfer.tk%3A6969","udp%3A%2F%2Fexodus.desync.com%3A6969"],"infoHash":"635af18f0dadd81eae14ba254938f8e8337bc709","infoHashBuffer":{"type":"Buffer","data":[99,90,241,143,13,173,216,30,174,20,186,37,73,56,248,232,51,123,199,9]},"announce":[],"urlList":[]}}